<?xml version="1.0" encoding="UTF-8" standalone="no"?>
<svg
   id="Folder_4_Copy_2_Image"
   data-name="Folder 4 Copy 2 Image"
   viewBox="0 0 914.66 760.27"
   version="1.1"
   sodipodi:docname="FurLogoWhite.svg"
   inkscape:version="1.4 (e7c3feb1, 2024-10-09)"
   xmlns:inkscape="http://www.inkscape.org/namespaces/inkscape"
   xmlns:sodipodi="http://sodipodi.sourceforge.net/DTD/sodipodi-0.dtd"
   xmlns="http://www.w3.org/2000/svg"
   xmlns:svg="http://www.w3.org/2000/svg">
  <defs
     id="defs6" />
  <sodipodi:namedview
     id="namedview6"
     pagecolor="#ffffff"
     bordercolor="#000000"
     borderopacity="0.25"
     inkscape:showpageshadow="2"
     inkscape:pageopacity="0.0"
     inkscape:pagecheckerboard="0"
     inkscape:deskcolor="#d1d1d1"
     inkscape:zoom="0.42584269"
     inkscape:cx="278.27177"
     inkscape:cy="430.9103"
     inkscape:window-width="1472"
     inkscape:window-height="920"
     inkscape:window-x="0"
     inkscape:window-y="36"
     inkscape:window-maximized="0"
     inkscape:current-layer="Folder_4_Copy_2_Image" />
  <path
     d="m309.01,0c1.98.52,3.93,1.23,5.94,1.51,5.06.72,8.01,4.14,10.59,8.01,1.6,2.39,3.17,4.86,4.28,7.5,1,2.37,1.34,5.02,1.99,7.54.4,1.56.68,3.18,1.29,4.66,1.45,3.47,3.06,6.87,4.77,10.64.49-.7.91-1.21,1.25-1.78,1.79-3.03,3.46-6.14,5.37-9.1.95-1.47,2.08-3.14,4.29-2.7,2.36.47,3.64,1.82,4.08,4.37.75,4.31.67,8.59.29,12.89-.48,5.32-.92,10.64-1.52,15.94-.52,4.57-1.2,9.13-1.86,13.69-.32,2.22-.76,4.42-1.18,6.8h3.03c-6.15,8.92-11.07,18.3-16.2,27.57-3.02,5.46-6.39,10.72-9.52,16.11-3.85,6.63-7.61,13.3-10.39,20.49-1.74,4.48-4.02,8.75-5.93,13.17-5.19,12.01-11.03,23.74-14.78,36.35-3.37,11.31-4.99,22.77-4.25,34.55.1,1.59.45,3.17.7,4.91-.89.36-1.59.72-2.34.92-3.55.97-6.14,3.19-7.34,6.57-2.53,7.1-7.56,11.86-13.75,15.69-10.43,6.46-20.82,12.98-31.26,19.41-4.71,2.9-4.81,2.95-9.98-.27-11.23-6.99-22.39-14.1-33.58-21.15-5.13-3.23-8.72-7.78-10.82-13.37-1.79-4.76-5.49-6.49-9.98-7.46-1.88-.41-3.79-.96-5.5-1.81-1.62-.81-2.29-2.34-2.47-4.31-.2-2.14-1.12-4.2-1.64-6.31-.5-2-.74-4.08-1.38-6.04-.93-2.83-2.72-4.31-6.32-2.52-2.29,1.14-4.25,2.96-6.27,4.59-.69.56-1.19,1.61-.31,2.3.42.33,1.56.17,2.1-.19,1.49-.99,2.79-2.25,4.24-3.31,2.28-1.68,3.4-1.1,3.98,1.71.81,3.93,1.59,7.87,2.73,11.71,1.27,4.26,3.9,5.81,8.33,6.39,4.5.58,8.52,2.26,10.2,7.11,2.34,6.79,7.15,11.48,13.06,15.18,11.74,7.35,23.62,14.49,35.19,22.11,3.01,1.98,4.88,1.62,7.58-.11,11.69-7.49,23.55-14.71,35.26-22.18,4.71-3.01,9.11-6.44,11.39-11.88.72-1.72,1.55-3.42,2.54-5,1.89-3.02,3.19-3.83,7.12-4.76,4.36,14.93,12.24,28.08,21.77,40.72-8.45,3.64-16.56,7.13-24.74,10.66,5.41,7.81,10.77,15.55,16.14,23.29,3.32-6.16,8.44-10.58,13.97-14.59,1.3-.95,2.74-1.71,4.1-2.59q2.61-1.69,4.67.41c.25.26.48.54.99,1.1-.84.66-1.57,1.38-2.43,1.89-5.99,3.57-11.54,7.69-15.55,13.47-2.09,3.01-2.13,6.37-.06,9.59.97,1.5,2.05,2.95,2.83,4.54,1.52,3.09.08,6.57-3.25,7.4-2.36.59-4.9.65-6.74-1.57-2.86-3.45-5.92-6.77-8.53-10.41-6.41-8.95-12.64-18.02-18.86-27.11-.98-1.43-1.91-1.84-3.59-1.41-2.36.6-4.45,1.62-6.62,2.72-3.09,1.58-6.55,2.42-9.88,3.52-1.37.45-2.79.76-4.18,1.14-7.57,2.05-15.11,4.73-23.1,3.6-5.24-.74-10.39-2.16-15.54-3.45-3.93-.99-7.8-2.23-11.67-3.42-1.11-.34-2.32-.7-3.17-1.43-2.02-1.72-4.49-2.13-6.88-2.82-1.32-.38-2.27.14-3.02,1.23-3.99,5.83-7.95,11.69-12.02,17.46-4.12,5.85-8.33,11.64-12.6,17.38-1.02,1.37-2.33,2.56-3.66,3.65-2.91,2.39-8.87.99-9.82-2.56-.4-1.47.59-3.41,1.21-5.04.43-1.14,1.31-2.11,1.97-3.17,2.52-4.03,1.93-8.43-1.31-11.99-5.21-5.73-11.39-10.12-18.19-13.69-15.13-7.96-30.3-15.83-45.42-23.8-1.65-.87-3.06-.98-4.82-.23-5.07,2.17-10.2,4.22-15.38,6.12-1.78.65-3.61,1.27-5.72.56-2.14-.72-3.93-1.63-4.17-3.97-.25-2.42.51-4.79,2.67-6.08,6.13-3.67,12.31-7.26,18.62-10.62,2.42-1.29,4.4-2.98,5.61-5.22,2.68-5,5.58-10.09,4.67-16.1-.61-4.04-1.37-8.12-2.65-11.99-2.94-8.95-5.99-17.89-9.47-26.64-3-7.56-6.63-14.86-9.98-22.27-.4-.89-.75-1.8-1.32-3.15-3.65,0-7.5.1-11.33-.04-2.57-.1-5.17-.3-7.22-2.33-1.89-1.87-2.67-4.59.29-7.25,2.55-2.29,5.76-2.73,8.97-2.97,6.01-.44,12.04-.75,18.06-1.12,2.96-.18,5.93-.41,8.9-.53,5.51-.22,11.03-.35,16.54-.56,6.23-.24,12.47-.53,19.28-.82.71-3.13,1.5-6.61,2.38-10.49-4.01,2.07-7.62,3.92-11.23,5.78-.56.29-1.15.54-1.67.89-3.96,2.71-8.11,2.93-12.76,1.83-7.42-1.76-15.01-2.79-22.46-4.45-5.79-1.29-11.49-3.01-17.2-4.65-7.35-2.11-14.75-4.08-21.97-6.57-7.9-2.72-15.7-5.79-23.39-9.07-4.65-1.98-8.12-5.57-10.54-10.07-.47-.87-1.02-1.7-1.51-2.51.93-3.91,4.26-4.78,7.33-5.54,7.39-1.83,14.82-3.54,22.3-4.93,5.75-1.07,11.62-1.51,17.42-2.36,4.78-.69,9.57-1.41,14.29-2.39,8.78-1.82,17.54-3.79,26.28-5.81,4.91-1.13,9.77-2.47,15.11-3.83-1.57-1.67-3.09-2.85-4.01-4.39-1.26-2.11-2.51-4.42-2.96-6.79-.48-2.52,2.19-4.18,4.8-3.91,4.7.49,9.05,2.18,13.52,3.47.58.17,1.22.14,2.07.22-.66-4.43-1.35-8.66-1.89-12.91-.62-4.84-1.11-9.69-1.62-14.54-.52-4.85-1.24-9.7-1.4-14.56-.1-3.01.49-6.09,1.1-9.08.45-2.24,4.96-4.28,6.76-1.54,2.13,3.24,4.16,6.54,6.21,9.82.45.72.81,1.5,1.48,2.76.54-1.09.84-1.67,1.11-2.27,1.02-2.29,2.15-4.54,3.01-6.89.93-2.52,1.99-5.09,2.29-7.72.38-3.35,1.65-6.27,3.27-9.05,2.17-3.72,4-7.77,7.84-10.18,1.49-.93,3.08-1.79,4.74-2.34,2.19-.73,4.49-1.12,6.74-1.66.18,0,.36,0,.55,0,4.3,1.14,8.22,3.02,11.78,5.74,3.23,2.46,6.89,4.4,9.9,7.09,7.01,6.26,11.86,14.17,15.38,22.76,3.64,8.88,6.72,18.01,9.83,27.1.75,2.18,1.97,2.8,3.96,2.69,4.05-.21,7.95.78,11.7,2.04,3.83,1.29,7.49,3.1,11.14,4.84,1.27.61,2.16.72,3.47-.05,2.63-1.54,5.38-2.91,8.2-4.08,5.03-2.08,10.4-2.72,15.76-3.19,1.51-.13,2.1-.59,2.61-2.05,3-8.65,5.96-17.32,9.36-25.81,1.8-4.49,4.41-8.67,6.82-12.89.56-.97,1.89-1.47,2.66-2.36,2.14-2.45,3.89-5.32,6.3-7.45C292.14,8.28,299.4,2.65,308.46,0,308.65,0,308.83,0,309.01,0ZM72.15,171.32c.16.63.2,1,.34,1.33,3.25,7.25,6.65,14.43,9.74,21.75,5.09,12.06,9.64,24.32,12.36,37.16.91,4.31,1.2,8.67-.66,12.92-.94,2.14-1.59,4.41-2.5,6.97,5.88-2.63,11.37-5.08,17.15-7.67-1.75-1.33-3.18-2.36-4.56-3.46-1.07-.86-2.04-1.8-1.68-3.42,1.75-7.9,3.49-15.81,5.2-23.72,1.56-7.22,3-14.47,4.63-21.68,1.1-4.87,2.47-9.68,3.65-14.53.52-2.12.85-4.29,1.33-6.73-1.22,0-2.11-.02-3,0-5.7.17-11.4.38-17.1.53-7.78.21-15.57.37-23.35.55-.45.01-.9,0-1.55,0Zm103.72,116.1c-1.46-.6-2.71-1.09-3.95-1.63-7.21-3.15-14.41-6.31-21.61-9.47-.33-.14-.68-.26-.96-.48-4.83-3.71-9.66-7.4-14.46-11.15-4.32-3.37-8.64-6.74-12.86-10.22-1.09-.9-2.04-1.01-3.2-.51-3.02,1.32-6.09,2.54-9.04,4.01-5.99,2.97-11.92,6.07-17.84,9.1.2.15.47.41.78.58,12.28,6.42,24.55,12.86,36.87,19.22,6.92,3.57,13.81,7.26,19.85,12.18,4,3.26,7.92,6.82,10.12,11.9,5.42-7.82,10.79-15.56,16.31-23.53Zm21.92-100.21c4.4-13.26,4.44-26.19-.03-39.5-5.39,6.4-5.34,33.62.03,39.5Zm68.69-39.5c-5.11,5.56-5.09,34.17.02,39.51,4.51-13.28,4.49-26.21-.02-39.51Zm-6.55,61.95c-1.1.86-1.68,1.51-2.41,1.86-5.14,2.48-9.4,6.14-13.59,9.92-.7.63-1.42,1.46-.43,2.23.4.31,1.55.12,2.06-.25,2.02-1.47,3.83-3.25,5.9-4.64,3.09-2.06,6.32-3.94,9.55-5.77,1.3-.74,2.57-.39,3.6.82.76.89,1.58,1.79,2.54,2.43.54.36,1.42.2,2.14.27-.03-.63.17-1.42-.13-1.86-1.67-2.43-3.45-4.74-6.89-4.65-.95.02-1.91-.29-2.37-.36Zm-40.77,14.82c1.32-1.65,1.14-2.72-.03-3.68-.83-.68-1.65-1.39-2.54-1.99-3.82-2.61-7.51-5.47-11.55-7.68-4.35-2.38-8.48-.9-10.75,3.34-.34.63-.05,1.59-.05,2.39.21.09.43.18.64.26.99-.85,2.02-1.65,2.96-2.55,2.28-2.17,3.22-2.54,5.96-.97,3.31,1.89,6.45,4.09,9.57,6.28,1.95,1.37,3.74,2.96,5.79,4.6Z"
     id="path1"
     style="fill:#ffffff" />
  <path
     d="m847.96,211.45c3.81-3.49,7.2-6.63,10.65-9.72,1.28-1.15,2.58-2.31,4.05-3.19,1.7-1.02,2.74-.55,2.78,1.38.15,6.98.34,13.98-2.71,20.57-1.63,3.53-2.93,7.2-4.57,10.72-.83,1.78-.21,2.71,1.25,3.53,3.71,2.09,7.62,3.91,11.05,6.39,4.77,3.43,9.39,7.12,13.67,11.14,4.22,3.96,8.03,8.38,11.82,12.77,3.44,3.98,6.39,8.33,8.57,13.17,1.97,4.38,4.31,8.6,6.15,13.03,1.27,3.06,2.23,6.31,2.86,9.56,1.5,7.72,1.45,15.5.19,23.27-.3,1.85-2.47,3.58-4.48,3.22-5.25-.93-10.5-1.93-15.74-2.93-8.64-1.65-17.31-3.01-26.08-3.72-2.96-.24-3.29.28-2.47,3.14,2.56,8.99,5.25,17.95,7.49,27.02,2.4,9.68,4.53,19.43,6.42,29.22.82,4.28-.79,6.21-6.03,6.59-4.02.29-8.14-.3-12.18-.75-7.93-.89-15.82-2.26-23.77-2.84-5.66-.41-11.38-.09-16.92,1.78-6.94,2.34-14.02,4.28-20.99,6.57-3.09,1.02-6.02,2.52-9.05,3.73-7.73,3.1-15.44,6.27-23.23,9.21-5.72,2.16-11.55,4.02-17.35,5.96-1.98.66-4.01,1.15-6.01,1.73-7.13,2.09-14.21,4.38-21.4,6.22-7.11,1.82-14.31,3.27-21.51,4.7-4.74.94-9.37-.2-13.96-1.34-7.4-1.84-14.86-3.5-22.19-5.6-9.93-2.83-19.9-5.61-29.58-9.15-8.46-3.09-16.96-6.1-25.22-9.76-5.63-2.49-11.37-4.77-17.17-6.8-5.72-2-11.61-3.52-17.38-5.36-9.45-3.02-18.99-2.03-28.56-.88-7.74.92-15.47,1.93-23.23,2.6-1.94.17-4.16-.51-5.94-1.4-1.91-.96-2.02-3.21-1.66-5.09,1.61-8.38,3.1-16.79,5.14-25.06,2.36-9.6,5.25-19.07,7.92-28.6.05-.17.14-.34.19-.51.83-3.6.97-5.58-3.74-4.99-6.83.85-13.66,1.66-20.45,2.77-6.78,1.1-13.51,2.56-20.26,3.84-1.54.29-3.48-1.33-3.9-3.36-.34-1.6-.7-3.23-.72-4.85-.11-7.18.14-14.34,1.83-21.36,1.58-6.57,4.47-12.61,7.77-18.45,2.09-3.7,3.97-7.58,6.53-10.93,3.8-4.96,7.88-9.75,12.28-14.17,4.21-4.22,8.81-8.1,13.57-11.7,3.74-2.82,7.94-5.04,12.01-7.4,2.49-1.44,2.94-2.02,2.24-4.77-.4-1.57-.96-3.14-1.66-4.6-3.24-6.69-4.15-13.83-4.29-21.13-.03-1.54-.14-3.1,0-4.63.22-2.36,1.33-2.96,3.25-1.5,2.01,1.52,3.73,3.43,5.55,5.19,1.5,1.45,2.86,3.08,4.49,4.36.82.64,2.19,1.07,3.17.88,1.27-.24,1.44-1.61,1.51-2.87.45-7.34.71-14.7,1.51-22.01,1.05-9.55,2.44-19.06,3.9-28.56,1.02-6.62,2.44-13.19,3.62-19.78,1.09-6.06,2.22-12.12,3.11-18.22,1.36-9.25,2.95-18.44,5.52-27.44,1.53-5.37,3.08-10.74,4.69-16.08.46-1.54,1.22-2.99,1.79-4.5.56-1.5,1.01-3.03,1.55-4.53,1.03-2.87,2.13-5.72,3.13-8.6,1.86-5.37,3.67-10.76,5.51-16.14,2.14-6.26,4.25-12.54,6.48-18.77.88-2.46,2.07-4.81,3.11-7.21,1.02-2.34,2.91-3.01,5.31-2.95,4.24.12,7.45,2.1,9.83,5.44,5.42,7.6,10.8,15.23,16.1,22.91,6.44,9.35,11.76,19.33,16.48,29.65,3.02,6.6,6.63,12.92,9.65,19.51,4.41,9.6,7.29,19.75,9.95,29.95.73,2.81,1.4,3.47,4.33,3.51,11.52.15,22.48,2.71,33,7.38.83.37,2.15.17,3.03-.22,7.68-3.49,15.73-5.61,24.05-6.7,2.42-.32,4.89-.27,7.34-.43,2.92-.2,3.53-.77,4.43-3.51,3.94-11.99,7.73-24.04,13.12-35.48,4.87-10.33,9.7-20.7,15.06-30.79,3.51-6.61,7.83-12.8,11.98-19.04,3.46-5.2,7.14-10.27,10.86-15.29,1.33-1.8,2.98-3.4,4.66-4.89.83-.74,2.02-1.26,3.12-1.47,7.58-1.4,7.46-.28,10.55,6.89,2.75,6.4,4.68,13.15,6.94,19.76,2.14,6.26,4.08,12.61,6.4,18.8,8.75,23.34,12.96,47.86,18.63,71.99,2.85,12.16,5.01,24.5,6.98,36.84,1.43,8.94,2.12,18.01,2.97,27.04.49,5.24.66,10.52.98,15.78.04.61.18,1.21.35,2.31Zm-60.14,117.96c1.63.92,2.88,1.59,4.09,2.31,3.74,2.22,4.39,6.86,1.17,9.65-1.9,1.65-4.04,3.08-6.26,4.28-13.1,7.07-27.26,10.48-41.98,11.63-9.14.71-18.31.93-27.43-.49-4.39-.68-8.7-1.62-12.39-4.32-2.26-1.65-3.5-3.82-3.5-6.69,0-1.72-.26-3.44-.32-5.16-.06-1.6-.01-3.21-.01-4.74,5.28-1.83,10.4-3.56,15.49-5.37,6.81-2.43,13.61-4.89,19.77-8.79,2.71-1.71,5.22-3.66,6.78-6.54,2.14-3.93,1.09-7.87-2.84-9.98-1.97-1.05-4.14-1.85-6.31-2.37-9.58-2.28-19.39-2.49-29.16-2.73-12.61-.3-25.23-.06-37.76,1.62-4.11.55-8.22,1.31-11.92,3.37-4.03,2.25-5.24,6.23-2.81,10.16,1.16,1.88,2.72,3.81,4.58,4.91,4.73,2.8,9.57,5.5,14.64,7.58,7.41,3.04,15.05,5.5,22.89,8.31-.18,3.21-.46,6.53-.53,9.87-.06,2.66-1.1,4.84-3.2,6.29-1.75,1.21-3.74,2.19-5.75,2.93-6.31,2.3-12.96,2.49-19.55,2.62-8.98.17-17.92-.53-26.8-2.02-11.15-1.87-21.71-5.4-31.55-10.96-2.17-1.23-4.03-3.03-5.95-4.67-1.13-.97-1.27-2.24-.84-3.72.7-2.41,1.96-4.21,4.31-5.25.93-.41,1.75-1.1,2.84-1.81-1-.67-1.72-1.06-2.32-1.58-1.69-1.47-3.19-1.07-4.88.11-6.13,4.26-6.79,12.27-1.29,17.23,1.34,1.21,2.81,2.31,4.35,3.24,6.91,4.19,14.34,7.23,22.08,9.48,8.97,2.61,18.14,3.94,27.47,4.54,9.9.64,19.75.66,29.52-1.29,4.29-.86,8.4-2.28,11.8-5.17,1.33-1.13,2.41-2.56,3.68-3.95,2.68,4.45,6.77,6.6,11.36,8.11,5.48,1.81,11.16,2.39,16.84,2.59,10.61.38,21.18-.23,31.69-2.03,11.22-1.93,21.89-5.39,31.85-10.89,2.59-1.43,5.14-3.13,7.3-5.14,5.28-4.92,3.71-14.1-2.83-17.31-.72-.36-1.81-.53-2.51-.25-1.21.47-2.25,1.37-3.8,2.38Zm-127.21-75.12c.35-6.27-.24-12.73-1.62-19.11-.76-3.51-1.59-7.04-4.33-9.67-1.89-1.81-4.5-1.97-6.25-.05-1.24,1.36-2.25,3.06-2.92,4.79-2.46,6.38-2.92,13.16-3.23,19.89-.21,4.51.13,9.06.51,13.57.33,3.92.88,7.85,1.66,11.71.61,3.07,1.51,6.11,4.08,8.31,1.91,1.64,3.08,1.8,5.34.52,2.41-1.37,3.29-3.8,4.03-6.18,2.36-7.65,3.06-15.53,2.74-23.77Zm74.28-.07c0,3.24-.14,6.07.04,8.87.18,2.78.52,5.56,1.09,8.29.8,3.84,1.44,7.76,3.79,11.12,1.73,2.48,5.22,3.94,7.64.75,1.01-1.34,2.01-2.78,2.6-4.34,2.42-6.39,2.94-13.15,3.24-19.87.21-4.6-.07-9.25-.53-13.84-.45-4.54-1.15-9.09-2.24-13.51-.56-2.25-1.96-4.45-3.46-6.28-1.57-1.9-4.4-1.86-5.96.03-1.44,1.75-2.73,3.82-3.44,5.96-2.47,7.53-3,15.35-2.76,22.82Z"
     id="path2"
     style="fill:#ffffff" />
  <path
     d="m698.52,759.91c-46.98,0-93.96,0-140.93.02-2.45,0-4.9.24-7.35.33-2.33.09-3.12-.72-3.1-3.02.21-34.54.51-69.09.58-103.63.1-51.28.03-102.55.03-153.83,0-4.73.05-9.43,1.46-14.04,2.98-9.72,9.39-16.64,17.63-22.14,10.2-6.81,21.63-10.65,33.36-13.72,14.19-3.71,28.69-5.59,43.27-6.97,25.1-2.37,50.27-2.58,75.43-1.99,23.72.56,47.37,2.25,70.67,7.2,10.07,2.14,19.88,5.1,29.32,9.22,6.2,2.71,11.97,6.13,17.09,10.57,8.79,7.62,13.4,17.11,13.39,28.92-.03,72.64,0,145.28.08,217.92.02,14.09.32,28.18.5,42.27.03,2.56-.67,3.27-3.13,3.24-15.81-.2-31.61-.5-47.42-.54-32.35-.09-64.7-.05-97.05-.06-1.27,0-2.54,0-3.81,0,0,.08,0,.16,0,.24Z"
     id="path3"
     style="fill:#ffffff;fill-opacity:1" />
  <path
     d="m369.51,380.05c-12.31,2.77-24.24,5.99-35.35,11.65-7.34,3.74-14,8.48-19.36,14.76-4.75,5.56-8.2,11.88-9.04,19.34-.21,1.87-.5,3.75-.51,5.62-.21,68.5-.38,137.01-.56,205.51,0,.8,0,1.61,0,2.8-1.27,0-2.33,0-3.38,0-21.8,0-43.61-.01-65.41,0-42.34.03-84.67.07-127.01.14-5.36,0-10.71.23-16.07.38-2.49.07-3.16-.53-3.14-2.89.2-24.09.51-48.17.55-72.26.09-56.08.28-112.17-.11-168.25-.12-16.8,7.44-28.13,21.27-36.17,8.94-5.2,18.67-8.46,28.69-10.9,14.77-3.59,29.8-5.53,44.93-6.78,21.49-1.78,43.02-1.91,64.54-1.43,24.46.55,48.81,2.38,72.69,8.15,9.66,2.33,19.03,5.48,27.76,10.29,7.43,4.1,13.89,9.29,18.09,16.87.4.71.77,1.45,1.12,2.18.12.24.15.51.29.97Z"
     id="path4"
     style="fill:#ffffff" />
  <path
     d="m510.62,380.05c.07,1.1.18,1.72.15,2.33-.18,3.73,1.55,6.42,4.73,8.04,2.82,1.44,5.95,1.97,9.13,1.7,3.21-.27,6.41-.67,9.61-1.05,2.93-.35,5.87-.66,8.78-1.17,5.95-1.04,11.9-1.82,17.96-1.54.45.02.92.04,1.35.15,12.9,3.48,25.29,8.1,35.65,16.88,8.94,7.57,13.88,17.13,13.62,29.06-.05,2.06.49,4.64-.54,6.02-.87,1.19-3.6.98-5.5,1.45-8.2,2.04-16.37,4.13-24.27,7.19-11.25,4.36-21.62,10.08-29.67,19.29-4.96,5.69-8.29,12.24-9.2,19.83-.31,2.58-.53,5.2-.54,7.8-.03,63-.01,126.01-.06,189.01,0,3.67-.48,7.34-.76,11.33-1.01,0-1.99,0-2.96,0-23.81,0-47.62-.01-71.42,0-44.7.04-89.41.07-134.11.16-6.45.01-12.9.26-19.34.42-2.54.06-3.26-.64-3.25-3.14.22-38.91.52-77.82.61-116.73.1-46.82.23-93.64-.09-140.46-.11-15.55,6.45-26.81,18.95-35.2,8.85-5.94,18.68-9.66,28.87-12.53,13.69-3.85,27.67-6.03,41.78-7.58,26.52-2.91,53.14-3.1,79.76-2.63,10.16.18,20.32.88,30.78,1.35Z"
     id="path5"
     style="fill:#ffffff;fill-opacity:1" />
  <path
     d="m554.02,122.14c-.5,3.08-.9,5.81-1.39,8.52-1.21,6.66-2.46,13.32-3.69,19.98-1.07,5.78-2.17,11.56-3.2,17.35-.3,1.67-.47,3.38-.59,5.07-.4,5.57-.73,11.14-1.12,16.7-.24,3.41-.52,6.82-.82,10.59-.63-.46-1.18-.82-1.67-1.24-1.57-1.35-2.96-2.98-4.7-4.04-4.73-2.88-11.41-1.74-11.82,5.83-.51,9.31.74,18.42,4.3,27.13.33.81.61,1.64,1,2.68-2.32,1.47-4.7,2.86-6.95,4.43-3.73,2.6-7.56,5.11-11.01,8.04-4.06,3.45-7.89,7.2-11.61,11.02-6.46,6.64-11.84,14.07-16.18,22.3-2.75,5.22-5.36,10.46-7.12,16.1-1.65,5.33-2.8,10.72-2.68,16.35.1,4.45-.01,8.91.03,13.36.04,3.82,1.45,6.98,4.86,8.95.89.51,1.99.76,3.02.88,4.73.54,9.25-.95,13.84-1.68,4.84-.77,9.63-1.82,14.46-2.64,3.77-.64,7.57-1.12,11.76-1.73-.21,1.3-.29,2.4-.57,3.45-.86,3.27-1.78,6.52-2.72,9.77-.28.97-.85,1.52-1.97,1.88-9.37,2.95-18.65,6.27-28.41,7.7-5.54.81-11.15,1.22-16.74,1.49-5.08.24-10.18.16-15.26.03-9.69-.26-19.28-1.32-28.62-4.1-12.1-3.59-24.3-6.93-35.8-12.2-4.33-1.99-8.58-4.27-12.56-6.89-8.97-5.92-17.59-12.38-26.64-18.16-7.72-4.92-13.44-11.87-19.62-18.3-8.34-8.67-15.38-18.45-22.12-28.43-6.18-9.14-10.81-18.96-13.88-29.54-.35-1.21-.83-2.46-.82-3.69.05-6.25-.54-12.64.54-18.73,2.24-12.64,6.18-24.82,11.84-36.44,3.94-8.1,7.45-16.42,10.95-24.73,4.12-9.76,9.21-18.96,14.76-27.97,3.69-6,6.89-12.3,10.44-18.4,3.64-6.24,7.19-12.55,11.23-18.53,3.51-5.19,8.1-9.51,13.02-13.42,1.11-.88,2.05-2.14,3.3-2.63,2.49-.98,5.1-1.78,7.74-2.23,10.59-1.8,21.22-3.33,31.79-5.17,7.55-1.31,15.05-2.99,22.58-4.45,2.13-.41,4.29-.79,6.45-.84,12.34-.25,24.69-.62,37.03-.52,10.15.08,20.13,1.97,30.07,3.97,8.4,1.7,16.76,3.59,25.19,5.12,5.68,1.03,11.44,1.62,17.18,2.31,2.62.31,4.81,1.28,6.73,3.11,1.37,1.3,2.93,2.39,4.45,3.53,1.5,1.12,2.33,2.29,1.41,4.32-.83,1.85-1.27,3.88-1.97,6.11-2.04-2.01-3.93-4.05-6-5.89-3.29-2.93-7.48-3.82-11.61-4.7-.66-.14-1.51.49-2.24.83-5.55,2.59-11.16,5.07-16.63,7.84-3.37,1.71-6.62,3.72-9.75,5.84-7.33,4.98-15.12,9.16-22.73,13.66-6.63,3.92-13.73,6.74-20.64,10-5,2.36-9.79,2.11-14.89.08-9.83-3.92-19.06-9-28.19-14.26-7.89-4.54-15.43-9.7-23.28-14.31-3.71-2.18-7.79-3.71-11.7-5.55-1.72-.81-3.57-1.45-5.09-2.55-2.88-2.1-5.77-1.51-8.7-.46-3.78,1.35-6.86,3.58-9.8,6.46-5.54,5.42-9.35,11.93-13.24,18.45-5.42,9.07-10.99,18.06-16.28,27.21-4.33,7.49-8.53,15.07-12.43,22.79-3.79,7.49-7.37,15.1-10.58,22.84-2.55,6.16-4.51,12.57-6.55,18.92-1.38,4.28-2.84,8.59-3.57,13.01-.74,4.43-2.56,8.71-2,13.34,1.13,9.36,2.62,18.69,6.89,27.18,3.93,7.81,8.28,15.43,12.86,22.88,2.34,3.81,5.43,7.22,8.48,10.54,6.37,6.94,12.91,13.72,19.44,20.5,1.36,1.42,2.97,2.6,4.83,3.65-.34-.63-.62-1.29-1.02-1.88-7.15-10.36-13.72-21.04-19.18-32.41-6.26-13.04-12.25-26.16-15.85-40.26-2.57-10.07-4.05-20.24-3.56-30.63.52-11.14,2.99-21.84,7.8-31.94,8.45-17.76,21.85-30.62,39.36-39.26,6.92-3.41,14.34-5.18,22.1-4.4,2.91.29,5.88,1.14,8.58,2.3,10.44,4.45,20.2,10.19,29.2,17.07,5.96,4.55,11.44,9.73,17.07,14.71,6.71,5.94,13.38,11.93,20.01,17.97,1.38,1.26,2.38,1.16,3.7-.05,6.67-6.11,13.44-12.1,20.07-18.25,7.76-7.21,15.63-14.23,24.72-19.81,7.48-4.59,14.91-9.19,23.14-12.33,6.33-2.41,12.72-2.17,19.55-.5Zm-89.43,97.32c-.07.18-.14.36-.21.54-2.33-.6-3.73.99-5.34,2.14-4.05,2.91-7.33,6.28-8.25,11.53-.6,3.38-3.01,5.88-5.86,7.47-3.33,1.86-6.21,4.22-9.2,6.5-1.52,1.16-1.33,2.15-.22,3.04,4.27,3.46,6.13,8.41,8.25,13.16,1.76,3.94,2.91,8.17,4.8,12.04,2.17,4.45,4.76,8.7,7.36,12.92,1.75,2.83,3.73,5.55,5.81,8.15,1.97,2.46,4.53,2.17,6.15-.47,1.7-2.75,3.38-5.51,5.12-8.23,4.02-6.31,7.62-12.81,10.42-19.81,2.51-6.27,4.31-13.07,10.04-17.61,1.29-1.02.95-2.46-.62-3.67-2.21-1.7-4.42-3.45-6.83-4.83-2.67-1.53-4.93-3.38-6.43-6.05-.82-1.47-1.52-3.04-2.08-4.63-1.6-4.54-5.05-7.43-8.8-10.03-1.26-.88-2.73-1.46-4.11-2.17Zm-44.6-10.98c-.34-1.6-.69-4.48-1.59-7.17-.93-2.76-3.23-2.97-4.8-.5-1.18,1.87-2.14,3.95-2.83,6.05-1.76,5.33-2.06,10.77-.43,16.21.46,1.53,1,3.47,2.76,3.66,1.8.2,2.63-1.63,3.45-3.03,2.51-4.32,3.19-9.1,3.44-15.22Zm94.93,18.64c.78-1.28,1.84-2.45,2.27-3.81,2.33-7.34,1.15-14.39-2.24-21.13-.7-1.4-1.46-3.24-3.45-2.97-2.01.28-2.41,2.21-2.87,3.83-1.68,5.93-1.02,11.77,1.02,17.45.92,2.57,1.93,5.27,5.27,6.62Z"
     id="path6"
     style="fill:#ffffff" />
</svg>
